<svg width="211" height="48" viewBox="0 0 211 48" fill="none" xmlns="http://www.w3.org/2000/svg">
<path d="M0.51891 10.0929C0.338198 6.57803 0.247842 4.82058 0.875896 3.47001C1.42796 2.28286 2.35316 1.30886 3.5104 0.696572C4.82694 5.81074e-07 6.58671 7.92917e-07 10.1062 1.2166e-06L200.894 2.41838e-05C204.413 2.46075e-05 206.173 2.48194e-05 207.49 0.696596C208.647 1.30888 209.572 2.28288 210.124 3.47003C210.752 4.8206 210.662 6.57805 210.481 10.0929L209 38.8929C208.836 42.0962 208.753 43.6979 208.077 44.9144C207.482 45.9851 206.574 46.8481 205.474 47.3874C204.224 48 202.621 48 199.413 48L11.5869 48C8.37939 48 6.77561 48 5.52604 47.3874C4.42613 46.8481 3.51763 45.9851 2.92262 44.9143C2.24665 43.6979 2.1643 42.0962 1.99961 38.8929L0.51891 10.0929Z" fill="url(#paint0_linear)"/>
<defs>
<linearGradient id="paint0_linear" x1="3.19484" y1="6.12046e-05" x2="194.208" y2="83.4104" gradientUnits="userSpaceOnUse">
<stop stop-color="#0C57A1"/>
<stop offset="0.987847" stop-color="#15A593"/>
</linearGradient>
</defs>
</svg>
